HIERARCHY
ROOT Hips
{
	OFFSET 0.000000 0.000000 0.000000
	CHANNELS 6 Xposition Yposition Zposition Zrotation Yrotation Xrotation 
	JOINT Spine1
	{
		OFFSET -0.013727 5.003763 -0.053727
		CHANNELS 3 Zrotation Yrotation Xrotation
		JOINT Spine2
		{
			OFFSET -0.000000 7.125302 -0.029825
			CHANNELS 3 Zrotation Yrotation Xrotation
			JOINT Chest
			{
				OFFSET -0.000001 7.550064 -0.815971
				CHANNELS 3 Zrotation Yrotation Xrotation
				JOINT Neck1
				{
					OFFSET -0.181677 26.311296 -0.553348
					CHANNELS 3 Zrotation Yrotation Xrotation
					JOINT Neck2
					{
						OFFSET -0.000003 7.709399 2.302586
						CHANNELS 3 Zrotation Yrotation Xrotation
						JOINT Head
						{
							OFFSET -0.000005 6.128914 1.953709
							CHANNELS 3 Zrotation Yrotation Xrotation
							JOINT HeadEnd
							{
								OFFSET 0.003598 16.065401 -1.835379
								CHANNELS 3 Zrotation Yrotation Xrotation
								End Site
								{
									OFFSET 0.000000 0.000000 0.000000
								}
							}
							JOINT Jaw
							{
								OFFSET 0.002637 0.475591 3.094941
								CHANNELS 3 Zrotation Yrotation Xrotation
								End Site
								{
									OFFSET 0.000000 0.000000 0.000000
								}
							}
							JOINT LeftEye
							{
								OFFSET 3.206381 5.380208 7.586883
								CHANNELS 3 Zrotation Yrotation Xrotation
								End Site
								{
									OFFSET 0.000000 0.000000 0.000000
								}
							}
							JOINT RightEye
							{
								OFFSET -3.222440 5.361867 7.558232
								CHANNELS 3 Zrotation Yrotation Xrotation
								End Site
								{
									OFFSET 0.000000 0.000000 0.000000
								}
							}
						}
					}
				}
				JOINT LeftShoulder
				{
					OFFSET 1.621652 23.237164 5.113412
					CHANNELS 3 Zrotation Yrotation Xrotation
					JOINT LeftArm
					{
						OFFSET 14.919845 -0.000000 -5.502326
						CHANNELS 3 Zrotation Yrotation Xrotation
						JOINT LeftForeArm
						{
							OFFSET 28.739309 0.000003 -0.002587
							CHANNELS 3 Zrotation Yrotation Xrotation
							JOINT LeftHand
							{
								OFFSET 27.093979 -0.000003 0.002608
								CHANNELS 3 Zrotation Yrotation Xrotation
								JOINT LeftHandThumb1
								{
									OFFSET 2.276480 -1.392046 3.191414
									CHANNELS 3 Zrotation Yrotation Xrotation
									JOINT LeftHandThumb2
									{
										OFFSET 4.012842 -1.828126 1.641655
										CHANNELS 3 Zrotation Yrotation Xrotation
										JOINT LeftHandThumb3
										{
											OFFSET 2.798515 0.000001 -0.000003
											CHANNELS 3 Zrotation Yrotation Xrotation
											JOINT LeftHandThumbEnd
											{
												OFFSET 3.180792 -0.000001 0.000003
												CHANNELS 3 Zrotation Yrotation Xrotation
												End Site
												{
													OFFSET 0.000000 0.000000 0.000000
												}
											}
										}
									}
								}
								JOINT LeftHandIndex1
								{
									OFFSET 3.247554 -0.531997 2.296170
									CHANNELS 3 Zrotation Yrotation Xrotation
									JOINT LeftHandIndex2
									{
										OFFSET 6.364579 0.012061 0.178600
										CHANNELS 3 Zrotation Yrotation Xrotation
										JOINT LeftHandIndex3
										{
											OFFSET 3.662367 0.000001 -0.000001
											CHANNELS 3 Zrotation Yrotation Xrotation
											JOINT LeftHandIndex4
											{
												OFFSET 2.329243 0.000002 0.000005
												CHANNELS 3 Zrotation Yrotation Xrotation
												JOINT LeftHandIndexEnd
												{
													OFFSET 2.759619 -0.180539 -0.113024
													CHANNELS 3 Zrotation Yrotation Xrotation
													End Site
													{
														OFFSET 0.000000 0.000000 0.000000
													}
												}
											}
										}
									}
								}
								JOINT LeftHandMiddle1
								{
									OFFSET 3.163499 0.240982 1.000333
									CHANNELS 3 Zrotation Yrotation Xrotation
									JOINT LeftHandMiddle2
									{
										OFFSET 6.190778 -0.259276 -1.002549
										CHANNELS 3 Zrotation Yrotation Xrotation
										JOINT LeftHandMiddle3
										{
											OFFSET 4.356522 -0.000006 0.000001
											CHANNELS 3 Zrotation Yrotation Xrotation
											JOINT LeftHandMiddle4
											{
												OFFSET 2.996875 -0.000006 0.000000
												CHANNELS 3 Zrotation Yrotation Xrotation
												JOINT LeftHandMiddleEnd
												{
													OFFSET 2.304294 -0.294571 -0.031740
													CHANNELS 3 Zrotation Yrotation Xrotation
													End Site
													{
														OFFSET 0.000000 0.000000 0.000000
													}
												}
											}
										}
									}
								}
								JOINT LeftHandRing1
								{
									OFFSET 2.882641 -0.053650 -0.322544
									CHANNELS 3 Zrotation Yrotation Xrotation
									JOINT LeftHandRing2
									{
										OFFSET 5.854543 -0.486203 -1.373841
										CHANNELS 3 Zrotation Yrotation Xrotation
										JOINT LeftHandRing3
										{
											OFFSET 4.350580 0.000001 0.000005
											CHANNELS 3 Zrotation Yrotation Xrotation
											JOINT LeftHandRing4
											{
												OFFSET 2.651324 0.000007 0.000003
												CHANNELS 3 Zrotation Yrotation Xrotation
												JOINT LeftHandRingEnd
												{
													OFFSET 1.936111 0.077685 -0.000071
													CHANNELS 3 Zrotation Yrotation Xrotation
													End Site
													{
														OFFSET 0.000000 0.000000 0.000000
													}
												}
											}
										}
									}
								}
								JOINT LeftHandPinky1
								{
									OFFSET 2.865499 -0.310004 -1.600377
									CHANNELS 3 Zrotation Yrotation Xrotation
									JOINT LeftHandPinky2
									{
										OFFSET 5.087854 -1.331141 -1.771232
										CHANNELS 3 Zrotation Yrotation Xrotation
										JOINT LeftHandPinky3
										{
											OFFSET 3.070976 0.000003 0.000001
											CHANNELS 3 Zrotation Yrotation Xrotation
											JOINT LeftHandPinky4
											{
												OFFSET 1.549666 -0.000001 0.000001
												CHANNELS 3 Zrotation Yrotation Xrotation
												JOINT LeftHandPinkyEnd
												{
													OFFSET 1.944896 -0.157801 0.057219
													CHANNELS 3 Zrotation Yrotation Xrotation
													End Site
													{
														OFFSET 0.000000 0.000000 0.000000
													}
												}
											}
										}
									}
								}
							}
						}
					}
				}
				JOINT RightShoulder
				{
					OFFSET -1.380118 23.180307 5.214158
					CHANNELS 3 Zrotation Yrotation Xrotation
					JOINT RightArm
					{
						OFFSET -15.037197 0.000012 -5.545604
						CHANNELS 3 Zrotation Yrotation Xrotation
						JOINT RightForeArm
						{
							OFFSET -28.736639 0.000004 -0.002597
							CHANNELS 3 Zrotation Yrotation Xrotation
							JOINT RightHand
							{
								OFFSET -27.133617 -0.000001 0.002612
								CHANNELS 3 Zrotation Yrotation Xrotation
								JOINT RightHandThumb1
								{
									OFFSET -2.274037 -1.383990 3.163128
									CHANNELS 3 Zrotation Yrotation Xrotation
									JOINT RightHandThumb2
									{
										OFFSET -4.011430 -1.827467 1.640914
										CHANNELS 3 Zrotation Yrotation Xrotation
										JOINT RightHandThumb3
										{
											OFFSET -2.794934 -0.000004 -0.000003
											CHANNELS 3 Zrotation Yrotation Xrotation
											JOINT RightHandThumbEnd
											{
												OFFSET -3.183855 0.000002 -0.000001
												CHANNELS 3 Zrotation Yrotation Xrotation
												End Site
												{
													OFFSET 0.000000 0.000000 0.000000
												}
											}
										}
									}
								}
								JOINT RightHandIndex1
								{
									OFFSET -3.253270 -0.520059 2.282867
									CHANNELS 3 Zrotation Yrotation Xrotation
									JOINT RightHandIndex2
									{
										OFFSET -6.341918 0.012473 0.178265
										CHANNELS 3 Zrotation Yrotation Xrotation
										JOINT RightHandIndex3
										{
											OFFSET -3.654875 -0.000008 -0.000001
											CHANNELS 3 Zrotation Yrotation Xrotation
											JOINT RightHandIndex4
											{
												OFFSET -2.327586 -0.000000 0.000001
												CHANNELS 3 Zrotation Yrotation Xrotation
												JOINT RightHandIndexEnd
												{
													OFFSET -2.761789 -0.180657 -0.113080
													CHANNELS 3 Zrotation Yrotation Xrotation
													End Site
													{
														OFFSET 0.000000 0.000000 0.000000
													}
												}
											}
										}
									}
								}
								JOINT RightHandMiddle1
								{
									OFFSET -3.168106 0.246593 1.001032
									CHANNELS 3 Zrotation Yrotation Xrotation
									JOINT RightHandMiddle2
									{
										OFFSET -6.180831 -0.258835 -1.000897
										CHANNELS 3 Zrotation Yrotation Xrotation
										JOINT RightHandMiddle3
										{
											OFFSET -4.348905 -0.000000 -0.000000
											CHANNELS 3 Zrotation Yrotation Xrotation
											JOINT RightHandMiddle4
											{
												OFFSET -3.000243 -0.000004 -0.000003
												CHANNELS 3 Zrotation Yrotation Xrotation
												JOINT RightHandMiddleEnd
												{
													OFFSET -2.302518 -0.294372 -0.031706
													CHANNELS 3 Zrotation Yrotation Xrotation
													End Site
													{
														OFFSET 0.000000 0.000000 0.000000
													}
												}
											}
										}
									}
								}
								JOINT RightHandRing1
								{
									OFFSET -2.885695 -0.067952 -0.308858
									CHANNELS 3 Zrotation Yrotation Xrotation
									JOINT RightHandRing2
									{
										OFFSET -5.854196 -0.486133 -1.373731
										CHANNELS 3 Zrotation Yrotation Xrotation
										JOINT RightHandRing3
										{
											OFFSET -4.338814 -0.000004 -0.000000
											CHANNELS 3 Zrotation Yrotation Xrotation
											JOINT RightHandRing4
											{
												OFFSET -2.654905 -0.000005 0.000003
												CHANNELS 3 Zrotation Yrotation Xrotation
												JOINT RightHandRingEnd
												{
													OFFSET -1.933570 0.077524 -0.000052
													CHANNELS 3 Zrotation Yrotation Xrotation
													End Site
													{
														OFFSET 0.000000 0.000000 0.000000
													}
												}
											}
										}
									}
								}
								JOINT RightHandPinky1
								{
									OFFSET -2.866430 -0.342798 -1.584145
									CHANNELS 3 Zrotation Yrotation Xrotation
									JOINT RightHandPinky2
									{
										OFFSET -5.091370 -1.332054 -1.772385
										CHANNELS 3 Zrotation Yrotation Xrotation
										JOINT RightHandPinky3
										{
											OFFSET -3.062666 -0.000007 0.000000
											CHANNELS 3 Zrotation Yrotation Xrotation
											JOINT RightHandPinky4
											{
												OFFSET -1.546526 0.000006 -0.000002
												CHANNELS 3 Zrotation Yrotation Xrotation
												JOINT RightHandPinkyEnd
												{
													OFFSET -1.945123 -0.157721 0.057212
													CHANNELS 3 Zrotation Yrotation Xrotation
													End Site
													{
														OFFSET 0.000000 0.000000 0.000000
													}
												}
											}
										}
									}
								}
							}
						}
					}
				}
			}
		}
	}
	JOINT LeftLeg
	{
		OFFSET 10.043214 -8.434526 2.595654
		CHANNELS 3 Zrotation Yrotation Xrotation
		JOINT LeftShin
		{
			OFFSET -0.000001 -43.221752 -0.802912
			CHANNELS 3 Zrotation Yrotation Xrotation
			JOINT LeftFoot
			{
				OFFSET 0.000002 -42.155094 -3.481524
				CHANNELS 3 Zrotation Yrotation Xrotation
				JOINT LeftToeBase
				{
					OFFSET -0.000000 -5.059475 13.231529
					CHANNELS 3 Zrotation Yrotation Xrotation
					JOINT LeftToeEnd
					{
						OFFSET -0.009607 -1.647615 6.513017
						CHANNELS 3 Zrotation Yrotation Xrotation
						End Site
						{
							OFFSET 0.000000 0.000000 0.000000
						}
					}
				}
			}
		}
	}
	JOINT RightLeg
	{
		OFFSET -10.047277 -8.295260 2.620317
		CHANNELS 3 Zrotation Yrotation Xrotation
		JOINT RightShin
		{
			OFFSET 0.000001 -43.362209 -0.805556
			CHANNELS 3 Zrotation Yrotation Xrotation
			JOINT RightFoot
			{
				OFFSET 0.000002 -42.117393 -3.478399
				CHANNELS 3 Zrotation Yrotation Xrotation
				JOINT RightToeBase
				{
					OFFSET -0.000001 -5.079609 13.284196
					CHANNELS 3 Zrotation Yrotation Xrotation
					JOINT RightToeEnd
					{
						OFFSET 0.009532 -1.634383 6.460591
						CHANNELS 3 Zrotation Yrotation Xrotation
						End Site
						{
							OFFSET 0.000000 0.000000 0.000000
						}
					}
				}
			}
		}
	}
}
MOTION
Frames: 4
Frame Time: 0.033333
1.862746 90.890167 6.482725 -2.990055 -0.395189 -6.906152 2.357355 0.551062 4.983629 0.120488 1.711105 -2.873815 2.473306 -0.146823 10.366029 -5.523463 6.006468 10.762435 0.391842 3.134983 -3.624845 0.138535 2.780733 -12.412186 0.000077 -0.000023 0.000006 0.005987 0.027497 0.038225 0.711785 -3.720704 -10.744058 -0.712658 3.780936 -10.682842 -17.257444 -15.908949 7.689388 -31.365210 -35.742825 -31.410973 -177.776001 -70.580360 178.287537 -5.453207 2.819038 -1.394089 -5.882102 9.861280 0.702589 -10.936859 -0.360575 7.156197 0.000001 8.774814 -0.000002 -16.285761 18.267839 5.948882 -1.844031 2.498503 -2.507276 -10.163589 4.678938 4.621104 -20.975998 -0.000003 0.000003 -21.226254 2.451694 -3.593993 0.000000 -0.000007 0.000000 -1.362679 2.240796 -0.746323 -21.334896 0.584906 3.008320 -13.821197 -0.000006 0.000002 -23.887133 -0.249079 -0.839480 -61.140881 2.784240 -1.436620 -0.294024 1.679685 0.833255 -14.218194 0.093213 1.300578 -34.212013 -0.287563 0.967170 -20.033182 0.964535 1.212844 -0.000000 0.000001 -0.000001 -3.440386 0.788232 0.501656 -15.928171 -3.167305 2.999703 -6.338817 -0.000002 0.000002 -18.123415 3.648178 -4.905662 -0.000005 -0.000000 -0.000003 10.147863 25.908440 10.470812 47.927631 39.920963 -11.815526 -177.518402 64.788094 -178.133499 -4.034858 4.981464 -1.729317 2.243540 -5.255035 -3.180156 14.282875 -0.826592 6.952496 -0.000002 -12.690592 -0.000001 16.355902 -18.014059 2.727813 1.665664 -1.955919 -2.878297 4.727793 -4.170581 4.993919 11.020507 0.000004 -0.000000 12.109032 -3.735708 -2.866779 0.000000 -0.000000 0.000001 1.291984 -1.928548 -1.498088 14.800111 0.567468 3.865603 14.242553 -1.341735 -6.660649 19.631939 0.143925 -0.648243 50.373325 -0.669263 -6.424287 0.353030 -1.511149 -0.031940 20.222765 3.684307 2.316629 18.787245 0.000004 -0.000000 10.751611 -0.479869 1.397906 0.000001 0.000001 0.000002 3.273802 0.305947 -0.580109 21.486786 11.830363 2.266133 8.162917 0.000001 0.000000 18.399048 -3.798979 -4.940566 0.000003 -0.000000 -0.000002 13.160637 3.506500 -29.301500 -0.267258 -0.424401 45.999069 -12.606914 0.084484 -8.046543 1.621827 -1.868845 -0.153810 0.000000 -0.000000 0.000002 -10.261684 -4.923920 8.515230 0.108686 0.827904 33.073040 18.052181 -4.196983 -25.356298 -1.456540 1.163159 -2.420108 0.000000 0.000000 -0.000001 
1.810142 91.032692 6.582965 -3.031783 -0.653206 -6.860682 2.340755 0.530480 4.950956 0.152936 1.685578 -2.899816 2.537107 -0.086844 10.436859 -5.512112 5.904005 10.527410 0.324932 3.178216 -3.611028 0.096124 2.876335 -12.351806 0.000077 -0.000023 0.000006 0.011742 0.051360 0.041126 0.713670 -3.699924 -10.726662 -0.704020 3.815390 -10.690331 -17.175861 -15.953626 7.577856 -31.489786 -35.580566 -31.434683 -177.757446 -70.643692 178.084747 -5.560110 2.551065 -1.555489 -5.882099 9.861278 0.702590 -10.936861 -0.360575 7.156199 0.000000 8.774812 -0.000001 -16.378286 18.219175 5.962713 -1.844031 2.498501 -2.507276 -10.163589 4.678940 4.621104 -20.975994 -0.000002 0.000003 -21.226254 2.451692 -3.593992 0.000000 -0.000006 0.000000 -1.362680 2.240795 -0.746323 -21.334892 0.584908 3.008320 -13.821194 -0.000002 0.000002 -23.887125 -0.249080 -0.839479 -61.184586 2.661626 -1.368907 -0.294025 1.679687 0.833256 -14.218192 0.093213 1.300578 -34.211998 -0.287565 0.967171 -20.033176 0.964534 1.212842 0.000000 0.000000 0.000000 -3.440383 0.788231 0.501655 -15.928167 -3.167307 2.999703 -6.338817 -0.000002 0.000002 -18.123415 3.648176 -4.905659 -0.000006 -0.000001 -0.000003 10.175046 25.944658 10.410546 48.056038 39.782936 -11.818694 -177.884476 64.701355 -178.437241 -3.919058 5.117646 -2.259750 2.243540 -5.255033 -3.180156 14.282875 -0.826595 6.952497 -0.000003 -12.690592 0.000000 16.256559 -17.918097 2.747127 1.665665 -1.955919 -2.878297 4.727795 -4.170584 4.993918 11.020512 0.000002 0.000000 12.109035 -3.735711 -2.866781 0.000001 -0.000000 0.000001 1.291985 -1.928548 -1.498087 14.800113 0.567468 3.865604 14.242554 -1.341736 -6.660650 19.631941 0.143925 -0.648243 50.291241 -0.653374 -6.448317 0.353029 -1.511150 -0.031941 20.222769 3.684305 2.316629 18.787245 0.000005 -0.000001 10.751611 -0.479869 1.397904 0.000000 0.000001 0.000001 3.273805 0.305945 -0.580109 21.486792 11.830361 2.266130 8.162918 0.000002 -0.000002 18.399055 -3.798981 -4.940566 0.000003 -0.000001 -0.000001 13.298333 3.513565 -29.025471 -0.264038 -0.427346 45.705105 -12.682629 0.418562 -7.950089 1.621927 -1.885807 -0.154419 0.000000 0.000000 0.000002 -10.223308 -4.894052 8.755198 0.087483 0.779821 32.419064 17.911160 -4.108871 -25.028368 -1.461503 1.144962 -2.338387 0.000000 0.000000 -0.000001 
1.672252 91.180298 6.446108 -3.082759 -0.890643 -6.776171 2.321712 0.508293 4.919328 0.164751 1.655219 -2.907178 2.602849 -0.035065 10.432739 -5.461587 5.790456 10.323565 0.280864 3.246650 -3.605862 0.037269 3.015990 -12.342787 0.000077 -0.000023 0.000006 0.015246 0.044590 0.044132 0.711542 -3.703012 -10.707098 -0.695369 3.799774 -10.682161 -17.004633 -16.027464 7.479494 -31.670332 -35.450268 -31.480877 -177.543518 -70.724640 177.766373 -5.690606 2.380468 -1.616041 -5.882100 9.861278 0.702589 -10.936859 -0.360575 7.156197 -0.000000 8.774813 -0.000002 -16.411858 18.164621 5.986187 -1.844031 2.498501 -2.507276 -10.163590 4.678939 4.621104 -20.975996 -0.000005 0.000003 -21.226250 2.451692 -3.593990 0.000001 -0.000006 -0.000001 -1.362680 2.240795 -0.746323 -21.334887 0.584908 3.008320 -13.821195 -0.000003 0.000002 -23.887131 -0.249079 -0.839480 -61.217850 2.619054 -1.325166 -0.294024 1.679686 0.833253 -14.218195 0.093213 1.300579 -34.212002 -0.287565 0.967169 -20.033180 0.964533 1.212842 -0.000000 -0.000001 0.000001 -3.440384 0.788234 0.501655 -15.928167 -3.167308 2.999704 -6.338817 -0.000003 0.000001 -18.123413 3.648175 -4.905662 -0.000005 -0.000001 -0.000003 10.209212 25.963511 10.311055 48.133461 39.684593 -11.925115 -178.306107 64.669632 -178.797791 -3.834871 5.240826 -2.922412 2.243540 -5.255033 -3.180155 14.282875 -0.826593 6.952497 -0.000005 -12.690591 0.000001 16.187988 -17.884878 2.734286 1.665664 -1.955920 -2.878298 4.727792 -4.170583 4.993917 11.020511 0.000004 -0.000002 12.109030 -3.735709 -2.866780 0.000001 -0.000001 0.000002 1.291984 -1.928547 -1.498088 14.800111 0.567468 3.865603 14.242553 -1.341734 -6.660651 19.631933 0.143927 -0.648244 50.231400 -0.655608 -6.478827 0.353030 -1.511151 -0.031941 20.222771 3.684306 2.316628 18.787245 0.000004 -0.000000 10.751610 -0.479867 1.397905 0.000001 0.000000 0.000000 3.273804 0.305947 -0.580111 21.486788 11.830364 2.266129 8.162916 0.000002 -0.000001 18.399052 -3.798980 -4.940569 0.000003 0.000000 -0.000002 13.482839 3.592489 -28.844177 -0.245744 -0.413777 45.161964 -12.837662 0.715265 -7.600486 1.620989 -1.886634 -0.126807 0.000000 -0.000000 0.000002 -10.093410 -4.909906 8.637035 0.091422 0.756086 32.106739 17.619955 -4.068064 -24.808426 -1.464056 1.137225 -2.311728 0.000000 0.000000 -0.000001 
1.561929 91.339104 6.235926 -3.133325 -1.161754 -6.657298 2.310580 0.509495 4.890002 0.167629 1.617293 -2.901424 2.651916 -0.026772 10.376255 -5.425601 5.685892 10.111206 0.270497 3.322669 -3.605591 -0.025833 3.173586 -12.327048 0.000077 -0.000022 0.000006 0.017445 0.017461 0.045172 0.708798 -3.727503 -10.688129 -0.687921 3.764190 -10.667468 -16.782593 -16.078588 7.351427 -31.907009 -35.289204 -31.395956 -177.419281 -70.794220 177.525742 -5.834154 2.221839 -1.629814 -5.882099 9.861279 0.702590 -10.936858 -0.360574 7.156199 -0.000000 8.774815 -0.000001 -16.381819 18.104092 5.998614 -1.844032 2.498502 -2.507276 -10.163589 4.678941 4.621106 -20.975992 -0.000002 0.000003 -21.226250 2.451695 -3.593995 0.000000 -0.000007 0.000000 -1.362679 2.240795 -0.746324 -21.334887 0.584908 3.008322 -13.821197 -0.000002 0.000003 -23.887129 -0.249077 -0.839481 -61.136848 2.632299 -1.310094 -0.294024 1.679686 0.833255 -14.218190 0.093213 1.300581 -34.211998 -0.287565 0.967172 -20.033173 0.964535 1.212844 0.000001 -0.000000 0.000001 -3.440386 0.788233 0.501657 -15.928165 -3.167306 2.999705 -6.338817 -0.000002 0.000003 -18.123411 3.648176 -4.905660 -0.000006 -0.000001 -0.000002 10.241763 26.002680 10.186083 48.235615 39.592552 -11.951096 -178.760864 64.664154 -179.186218 -3.789504 5.342098 -3.684710 2.243539 -5.255033 -3.180156 14.282877 -0.826594 6.952496 -0.000004 -12.690591 -0.000001 16.128839 -17.877281 2.731315 1.665664 -1.955919 -2.878296 4.727791 -4.170585 4.993919 11.020511 0.000004 -0.000000 12.109033 -3.735711 -2.866780 0.000001 -0.000000 0.000003 1.291984 -1.928548 -1.498089 14.800111 0.567469 3.865603 14.242551 -1.341736 -6.660647 19.631939 0.143926 -0.648241 50.182747 -0.664794 -6.510210 0.353028 -1.511149 -0.031941 20.222771 3.684305 2.316628 18.787245 0.000005 -0.000000 10.751610 -0.479867 1.397904 0.000001 -0.000000 0.000002 3.273806 0.305947 -0.580110 21.486790 11.830364 2.266132 8.162915 0.000003 0.000000 18.399050 -3.798981 -4.940568 0.000003 0.000000 -0.000002 13.638316 3.781701 -28.707455 -0.234120 -0.412417 44.555264 -12.948300 0.987993 -7.160679 1.620504 -1.887204 -0.104483 0.000000 -0.000000 0.000002 -9.956775 -4.886052 8.378835 0.094789 0.739940 31.880640 17.391861 -4.032015 -24.559635 -1.467611 1.137025 -2.292955 0.000000 0.000000 -0.000001 
